<svg xmlns="http://www.w3.org/2000/svg" viewBox="0 0 410.15 40.17"><defs><style>.cls-1{fill:#024b78;}.cls-2{fill:#1c75bc;}</style></defs><g id="Layer_2" data-name="Layer 2"><g id="Layer_2-2" data-name="Layer 2"><path class="cls-1" d="M54.69,38.39V5.61h6.08L78.07,29.5V5.61h5.85V38.39H77.85L60.54,14V38.39Z"/><path class="cls-1" d="M89.65,22.05q0-16.67,16.46-16.67,16.22,0,16.21,16.67T106.11,38.62Q90.39,38.62,89.65,22.05Zm16.46,11.3q9.9,0,9.91-11.44,0-11.25-9.91-11.26Q96,10.65,96,21.91,96,33.35,106.11,33.35Z"/><path class="cls-1" d="M128.05,38.35V5.61H143Q153,5.61,153,14.39q0,5.94-7.82,9.83l10.38,14.17h-7.65l-10-14.28V21.34q8.72-1.5,8.71-6.77,0-3.61-4.08-3.62h-8.32v27.4Z"/><path class="cls-1" d="M179.86,5.61v5.27h-9.4V38.39h-6.07V10.88H155V5.61Z"/><path class="cls-1" d="M183.3,38.39V5.61h6.08V19.14h16.16V5.61h6.08V38.39h-6.08v-14H189.38v14Z"/><path class="cls-1" d="M240.94,5.61v5.23H224.52v8.25h15.64v5.43H224.45v8.6h16.81v5.27H218.49V5.61Z"/><path class="cls-1" d="M246.88,38.35V5.61h14.9q10,0,10,8.78,0,5.94-7.82,9.83l10.39,14.17h-7.66l-10-14.28V21.34q8.7-1.5,8.71-6.77,0-3.61-4.08-3.62h-8.32v27.4Z"/><path class="cls-1" d="M277.25,38.39V5.61h6.08L300.64,29.5V5.61h5.84V38.39h-6.07L283.1,14V38.39Z"/><path class="cls-2" d="M316.73,38.39h-6.24L324.41,5.61h6.53l14.22,32.78h-6.54l-3.73-8.94H324l2.08-5.27h6.61l-5.16-12.31Z"/><path class="cls-2" d="M349.17,38.35V5.61h14.9q10,0,10,8.78,0,5.94-7.82,9.83l10.39,14.17H369l-10-14.28V21.34q8.71-1.5,8.71-6.77,0-3.61-4.08-3.62h-8.32v27.4Z"/><path class="cls-2" d="M385.62,5.61V38.39h-6.08V5.61Zm23.06,0-14,15.29,15.45,17.49h-8.41L389.06,23.08V19.14l12.2-13.53Z"/><path class="cls-2" d="M19.62,38.52l-2.56-1.05c-.83-.32-1.64-.69-2.43-.95a20.71,20.71,0,0,0-2.28-.68,11.26,11.26,0,0,0-2.09-.22H9.32l-.83.14-.75.13h0A20,20,0,0,0,24,39.77c-.58-.1-1.16-.22-1.74-.35C21.4,39.14,20.49,38.86,19.62,38.52Zm12-3.31-1.69.29a11.66,11.66,0,0,1-1.78,0,20.14,20.14,0,0,1-3.68-.37c-1.21-.28-2.44-.55-3.62-.91l-3.47-1.13c-1.13-.35-2.22-.75-3.29-1a13.74,13.74,0,0,0-1.57-.38c-.51-.09-1-.24-1.5-.29a14.69,14.69,0,0,0-2.78-.09c-.43,0-.85.06-1.24.11l-1.07.27L4.9,32l-.72.34a20.56,20.56,0,0,0,3.13,3.26l.19-.13.76-.31.89-.37a10,10,0,0,1,1-.18,8.77,8.77,0,0,1,2.37-.09,15,15,0,0,1,2.56.5c1.74.44,3.45,1.2,5.16,1.82.84.35,1.69.63,2.52.91a19.39,19.39,0,0,0,2.46.58,12.52,12.52,0,0,0,2.33.18c.22,0,.42,0,.63-.05a20.07,20.07,0,0,0,6-4.08A13.29,13.29,0,0,1,31.57,35.21Z"/><path class="cls-1" d="M28,29.86c.53-.07,1.13-.25,1.78-.38,1.3-.33,2.77-.82,4.41-1.34.83-.25,1.69-.51,2.59-.71.7-.14,1.42-.25,2.15-.34a20.08,20.08,0,1,0-37.81-.55c.29-.09.56-.18.86-.26.77-.24,1.61-.38,2.44-.55l1.25-.22,1.26-.06a22.43,22.43,0,0,1,2.46,0c.78.1,1.54.24,2.25.36a9,9,0,0,1,2,.47c1.18.42,2.14.84,2.81,1.1s1,.45,1,.45-.42,0-1.14-.12-1.73-.21-2.92-.43a13,13,0,0,0-1.94-.15c-.68,0-1.4-.05-2.14-.11s-1.5.13-2.27.15l-1.17.08-1.16.23c-.78.15-1.56.25-2.33.47-.23.06-.46.1-.69.15a19.84,19.84,0,0,0,2.22,3.82l.64-.52,1-.49,1.15-.56c.41-.14.87-.22,1.34-.34a11.37,11.37,0,0,1,3.11-.34,18.48,18.48,0,0,1,3.41.39c2.35.42,4.67,1.25,7,1.9,1.15.38,2.29.66,3.41.95a24.78,24.78,0,0,0,3.3.52,16,16,0,0,0,3.09,0,5.85,5.85,0,0,0,1.41-.23L34,33l2-.76a19.93,19.93,0,0,0,2.05-3.34L37.07,29c-.86.19-1.71.34-2.53.55a35.6,35.6,0,0,1-4.64.86,12.69,12.69,0,0,1-1.92.05,12.8,12.8,0,0,1-1.45-.12c-.79-.12-1.24-.22-1.24-.22s.45-.05,1.25-.1A12.81,12.81,0,0,0,28,29.86Zm-6.08-7.3-1.23,7.9c-.4-.12-.8-.23-1.18-.36L18.3,22.56l-3.94,2.88L13.06,25l3.25-4.44L6,19a.2.2,0,0,1-.16-.22A.19.19,0,0,1,6,18.58L16.29,17,11.5,10.44a.2.2,0,0,1,0-.25.2.2,0,0,1,.2,0L18.3,15,19.88,4.7c0-.2.37-.2.4,0L21.88,15l6.56-4.8c.13-.1.33.09.24.25L23.88,17l10.28,1.61a.2.2,0,0,1,.15.18.21.21,0,0,1-.15.22L23.88,20.56l4.8,6.57a.17.17,0,0,1,0,.2.18.18,0,0,1-.23,0Z"/><path class="cls-2" d="M21.85,18.78A1.77,1.77,0,1,1,20.08,17,1.76,1.76,0,0,1,21.85,18.78Z"/></g></g></svg>