<svg xmlns="http://www.w3.org/2000/svg" viewBox="0 0 398.82 33.96"><defs><style>.cls-1{fill:#fff;}.cls-2{fill:#b9e5fb;}</style></defs><g id="Layer_2" data-name="Layer 2"><g id="Layer_2-2" data-name="Layer 2"><path class="cls-1" d="M43.36,33V.23h6.08L66.75,24.12V.23h5.84V33H66.52L49.21,8.62V33Z"/><path class="cls-1" d="M78.32,16.67Q78.32,0,94.78,0,111,0,111,16.67T94.78,33.24Q79.06,33.24,78.32,16.67ZM94.78,28q9.91,0,9.91-11.44,0-11.25-9.91-11.26-10.16,0-10.15,11.26Q84.63,28,94.78,28Z"/><path class="cls-1" d="M116.73,33V.23h14.9q10,0,10,8.78,0,5.94-7.82,9.83L144.23,33h-7.65l-10-14.28V16q8.7-1.5,8.71-6.77,0-3.61-4.08-3.62h-8.33V33Z"/><path class="cls-1" d="M168.54.23V5.5h-9.4V33h-6.08V5.5h-9.4V.23Z"/><path class="cls-1" d="M172,33V.23h6.07V13.75h16.16V.23h6.08V33h-6.08V19H178.05V33Z"/><path class="cls-1" d="M229.61.23V5.46H213.2v8.25h15.63v5.43h-15.7v8.6h16.8V33H207.17V.23Z"/><path class="cls-1" d="M235.55,33V.23h14.9q10,0,10,8.78,0,5.94-7.82,9.83L263.06,33H255.4l-10-14.28V16q8.72-1.5,8.71-6.77,0-3.61-4.08-3.62h-8.32V33Z"/><path class="cls-1" d="M265.92,33V.23H272l17.31,23.89V.23h5.84V33h-6.07L271.77,8.62V33Z"/><path class="cls-2" d="M305.4,33h-6.23L313.08.23h6.54L333.83,33H327.3l-3.74-8.94H312.67l2.09-5.27h6.6L316.2,6.49Z"/><path class="cls-2" d="M337.84,33V.23h14.9q10,0,10,8.78,0,5.94-7.81,9.83L365.35,33h-7.66l-10-14.28V16q8.71-1.5,8.71-6.77,0-3.61-4.08-3.62H344V33Z"/><path class="cls-2" d="M374.29.23V33h-6.07V.23Zm23.07,0-14,15.29L398.82,33h-8.41L377.73,17.7V13.75L389.93.23Z"/><path class="cls-1" d="M16.36,32.59l-2.13-.88c-.7-.27-1.37-.57-2-.79a17.56,17.56,0,0,0-1.9-.57,9.1,9.1,0,0,0-1.74-.18H7.77l-.69.12-.63.11h0A16.67,16.67,0,0,0,16.75,34a17.1,17.1,0,0,0,3.3-.33c-.48-.08-1-.18-1.45-.29C17.85,33.1,17.09,32.87,16.36,32.59Zm10-2.76-1.41.24a10.37,10.37,0,0,1-1.48,0,16.91,16.91,0,0,1-3.07-.31c-1-.23-2-.46-3-.76l-2.9-.94c-.94-.29-1.85-.63-2.74-.85a10.85,10.85,0,0,0-1.31-.32c-.43-.08-.85-.2-1.25-.24a11.48,11.48,0,0,0-2.32-.07c-.35,0-.71,0-1,.08l-.9.23-.81.2-.6.29A17.22,17.22,0,0,0,6.1,30.14L6.26,30l.63-.27.74-.3c.27-.07.56-.1.86-.15a7.16,7.16,0,0,1,2-.07,11.75,11.75,0,0,1,2.13.41,44.83,44.83,0,0,1,4.3,1.52c.71.29,1.41.52,2.11.76a15.94,15.94,0,0,0,2,.48,10.05,10.05,0,0,0,1.94.15,4.73,4.73,0,0,0,.53,0,16.79,16.79,0,0,0,5-3.4A11.25,11.25,0,0,1,26.33,29.83Z"/><path class="cls-1" d="M23.32,25.36c.44-.05.94-.21,1.48-.31,1.09-.28,2.32-.69,3.68-1.12.69-.21,1.41-.42,2.16-.59.59-.12,1.19-.21,1.79-.29A16.75,16.75,0,1,0,.9,22.59l.72-.21a20.77,20.77,0,0,1,2-.46l1-.18,1.06,0a17.52,17.52,0,0,1,2.05,0c.65.08,1.28.2,1.88.3a7.17,7.17,0,0,1,1.64.39c1,.35,1.79.7,2.35.91s.87.38.87.38-.36,0-.95-.1-1.45-.18-2.44-.36a10.27,10.27,0,0,0-1.62-.12C9,23.07,8.36,23,7.75,23s-1.25.11-1.9.13l-1,.07-1,.19A19.22,19.22,0,0,0,2,23.77l-.56.13a16.54,16.54,0,0,0,1.84,3.19c.17-.14.34-.29.54-.44l.81-.41,1-.47c.34-.12.72-.18,1.11-.29a10.14,10.14,0,0,1,2.59-.28,16.62,16.62,0,0,1,2.85.33,59.67,59.67,0,0,1,5.82,1.59c1,.31,1.91.55,2.85.79a20.88,20.88,0,0,0,2.75.43,13.1,13.1,0,0,0,2.58,0,5,5,0,0,0,1.18-.19l1.11-.22,1.7-.63a16.87,16.87,0,0,0,1.71-2.78l-.89.14c-.71.15-1.42.28-2.1.45a29.3,29.3,0,0,1-3.87.72,11,11,0,0,1-1.6,0,9.52,9.52,0,0,1-1.22-.1c-.65-.1-1-.18-1-.18s.38-.05,1.05-.09A8.64,8.64,0,0,0,23.32,25.36Zm-5.07-6.09-1,6.59c-.33-.09-.66-.19-1-.3l-1-6.29L12,21.67l-1.09-.36,2.71-3.7L5,16.29a.16.16,0,0,1-.13-.18A.15.15,0,0,1,5,16l8.57-1.35-4-5.44a.17.17,0,0,1,0-.21.15.15,0,0,1,.16,0l5.48,4,1.32-8.58c0-.16.31-.16.34,0L18.25,13l5.47-4c.11-.08.27.07.2.21l-4,5.44L28.49,16a.15.15,0,0,1,.12.15c0,.1-.05.17-.12.18l-8.58,1.32,4,5.48a.14.14,0,0,1-.2.19Z"/><path class="cls-1" d="M18.22,16.12a1.47,1.47,0,1,1-1.47-1.47A1.47,1.47,0,0,1,18.22,16.12Z"/></g></g></svg>